<?xml version="1.0" encoding="utf-8"?>
<!-- Generator: Adobe Illustrator 23.0.1, SVG Export Plug-In . SVG Version: 6.00 Build 0)  -->
<svg version="1.1" id="Capa_1" xmlns="http://www.w3.org/2000/svg" xmlns:xlink="http://www.w3.org/1999/xlink" x="0px" y="0px"
	 viewBox="0 0 149.6 37" style="enable-background:new 0 0 149.6 37;" xml:space="preserve">
<style type="text/css">
	.st0{fill:#FFFFFF;}
</style>
<title>logoMovil</title>
<g>
	<g id="Capa_1-2">
		<path class="st0" d="M51.4,11.4h3.2l0.2,9.5l0,0l4.3-9.5h3.1l-2.7,12.9h-1.9l2.2-10.7l0,0l-4.9,10.7h-1.7l-0.3-10.7l0,0l-2.3,10.7
			h-2L51.4,11.4z"/>
		<path class="st0" d="M62.7,17.8c1-4.6,2.7-6.6,5.7-6.6s3.8,2,2.8,6.6s-2.7,6.7-5.7,6.7S61.7,22.4,62.7,17.8z M69.1,17.8
			c1-4.3,0.2-5.1-1.1-5.1s-2.3,0.8-3.2,5.1s-0.2,5.2,1,5.2S68.2,22.2,69.1,17.8z"/>
		<path class="st0" d="M74.4,11.4h2.5l1.7,9.6l0,0l2-9.6h2l-2.8,12.9h-2.5l-1.6-9.9l0,0l-2.1,9.9h-2L74.4,11.4z"/>
		<path class="st0" d="M84.7,11.4h2.1L85.6,17l0,0l5.1-5.6h2.2l-4.8,5.4l2.5,7.5h-2.3l-1.9-5.8l-1.5,1.6L84,24.3h-2L84.7,11.4z"/>
		<path class="st0" d="M94,11.4h7l-0.4,1.7h-4.9L95,16.7h4.6l-0.4,1.7h-4.6l-0.9,4.1h5.1l-0.4,1.8h-7.1L94,11.4z"/>
		<path class="st0" d="M103.2,19.2l-1.6-7.8h2.3l0.9,5.6l3.4-5.6h2.2l-5.1,7.8l-1.1,5.1h-2.1L103.2,19.2z"/>
		<path class="st0" d="M121.8,19.7v0.2c-0.5,2.4-1.9,4.6-5,4.6s-3.8-2.1-2.8-6.7s2.4-6.6,5.7-6.6s3.3,2.7,3,4v0.2h-2.1v-0.2
			c0.3-1.2,0.2-2.5-1.3-2.5s-2.4,0.9-3.2,5.1s-0.5,5.2,1.1,5.2s2.3-1.9,2.5-3.1v-0.2L121.8,19.7z"/>
		<path class="st0" d="M127.5,11.4h2.6l0.6,12.9h-2.1v-3.2h-3.8l-1.5,3.2h-2.1L127.5,11.4z M128.5,19.5l-0.2-6.4l0,0l-2.9,6.4H128.5
			z"/>
		<path class="st0" d="M134.4,11.4h6.8l-0.3,1.7H136l-0.7,3.6h4.5l-0.4,1.7h-4.5l-1.2,5.9h-2.1L134.4,11.4z"/>
		<path class="st0" d="M142.7,11.4h6.9l-0.3,1.7h-4.9l-0.8,3.6h4.6l-0.3,1.7h-4.6l-0.9,4.1h5l-0.3,1.8H140L142.7,11.4z"/>
	</g>
</g>
<image style="overflow:visible;" width="1487" height="1450" id="Capa_1_xA0_Imagen" xlink:href="BBF179D4.png"  transform="matrix(2.534244e-02 0 0 2.534244e-02 1 0.2695)">
</image>
</svg>
