<svg xmlns="http://www.w3.org/2000/svg" viewBox="0 0 250.7 55.6"><defs><style>.cls-1{fill:#f61e37;stroke:#a70014;stroke-miterlimit:10;stroke-width:1.42px;}</style></defs><title>Recurso 16</title><g id="Capa_2" data-name="Capa 2"><g id="Capa_1-2" data-name="Capa 1"><path class="cls-1" d="M54.7,40.3v2A49.8,49.8,0,0,1,50,46.5c-1.3,1.1-2.6,2-3.9,2.9l-3.2,1.8a5.2,5.2,0,0,1-2.2.5,4.3,4.3,0,0,1-3.5-1.6A5.5,5.5,0,0,1,35.8,46,14.7,14.7,0,0,1,37,40.2a31.1,31.1,0,0,1,3.4-6,82.5,82.5,0,0,1,5.5-6.8,16.7,16.7,0,0,0,2.4-3.2.4.4,0,0,0-.1-.3l-.3-.2c-.4,0-1.6.8-3.5,2.5a93.8,93.8,0,0,0-7.3,7.2c-3,3.2-6.3,7-9.7,11.4a23.3,23.3,0,0,0-1.9,2.4l-2.2,2.6c-.5.4-.8.6-1.1.6s-1.1-.5-1.5-1.6a10.5,10.5,0,0,1-.6-3.6,5.2,5.2,0,0,1,.8-2.4c.5-.9,1.6-2.5,3.2-4.7l4.2-5.8q1.6-2.4,3.6-5.7a37.5,37.5,0,0,0,2-3.7,4.9,4.9,0,0,0,.7-2.4c0-.6-.2-.9-.5-.9s-2.2,1-4.2,3a70.8,70.8,0,0,0-7.6,8.8c-3,3.9-6.2,8.4-9.5,13.6-1.1,1.7-1.8,2.9-2.3,3.5a1.8,1.8,0,0,1-1.5.9c-.6,0-1.3-.7-1.9-2.2a9.5,9.5,0,0,1-.9-3.5,1.6,1.6,0,0,1,.4-1q3.9-5.1,6.3-8.7t4.5-6.9a58.1,58.1,0,0,0,2.8-5.3,9.1,9.1,0,0,0,.9-3.3c0-.8-.4-1.3-1.2-1.3a8.5,8.5,0,0,0-3.2,1.2L11,21.7c-2.3,1.4-4.1,2.5-5.5,3.2A8.2,8.2,0,0,1,2.4,26c-.7,0-1-.4-1-1.1s.2-1.3.4-2.8A13.3,13.3,0,0,1,2.7,19a9.8,9.8,0,0,1,3.1-3.1l2.8-2c.2,0,.3.1.3.2l-.3.4a16.4,16.4,0,0,0-1.8,1.6,3.3,3.3,0,0,0-.7,1.3,73.1,73.1,0,0,1,9.6-4.9,20.4,20.4,0,0,1,5.9-1.7c.5,0,1,.4,1.5,1.1a15.8,15.8,0,0,1,1.3,2.6,10.4,10.4,0,0,1,.5,1.8,11.3,11.3,0,0,1-.8,3.6c-.5,1.3-1.2,2.9-2,4.7l-3.3,6.7,2.9-3.6,2.8-3.3,2.7-3.1A43.6,43.6,0,0,1,31.5,17a43.1,43.1,0,0,1,4.4-3.2,7.3,7.3,0,0,1,2.8-1.3,2.6,2.6,0,0,1,1.9,1.1,4.6,4.6,0,0,1,.8,2.4,10.9,10.9,0,0,1-1.1,3.3c-.8,1.6-1.9,3.6-3.3,6.1l-5.6,9.7,6.9-7.3,5.4-5.5a29.1,29.1,0,0,1,2.9-2.6A26.9,26.9,0,0,0,49.8,17l2.6-2.2,1.7-1.3a3.8,3.8,0,0,1,1.3-.4c.5,0,1.2.6,1.9,1.8a5.9,5.9,0,0,1,1.2,2.2,2.5,2.5,0,0,1-.7,1.5c-.5.6-1.4,1.6-2.9,3.1A87.5,87.5,0,0,0,48,30.4a50,50,0,0,0-4.4,7.9A16,16,0,0,0,42.1,44a2.7,2.7,0,0,0,.5,1.9,1.7,1.7,0,0,0,1.5.5,4.7,4.7,0,0,0,1.7-.3,8.1,8.1,0,0,0,1.8-1l1.9-1.2,2.4-1.6L53.7,41Z" transform="translate(-0.7 -9.8)"/><path class="cls-1" d="M73.3,40.4v1.9a13,13,0,0,1-3.1,2.4,7.6,7.6,0,0,1-3.3.4c-2.6,3-4.8,4.5-6.7,4.5a4.7,4.7,0,0,1-3-1,9.7,9.7,0,0,1-2.2-3,11.2,11.2,0,0,1-.8-4.2,8.7,8.7,0,0,1,1.3-4.2,19.7,19.7,0,0,1,7.4-7.4,9,9,0,0,1,4.2-1.2,4.8,4.8,0,0,1,2.2.4,1.4,1.4,0,0,1,.8,1.2,2.4,2.4,0,0,1-.7,1.3,2.7,2.7,0,0,1,1.5.8,3.3,3.3,0,0,1,.4,2,13.4,13.4,0,0,1-.6,3.5,21,21,0,0,1-1.8,4l.5.6h.4a1.7,1.7,0,0,0,1-.3l.9-.5Zm-6-7.8-4.1,2.7a19.7,19.7,0,0,0-3,2.4,6.7,6.7,0,0,0-1.6,2.4,33.8,33.8,0,0,0-.7,3.6c0,1.3.9,1.9,2.7,1.9s2.2-.7,4.2-2.1a9.1,9.1,0,0,1-.5-2.7,8.3,8.3,0,0,1,.8-3.7A30.4,30.4,0,0,1,67.3,32.6Z" transform="translate(-0.7 -9.8)"/><path class="cls-1" d="M93,35.1c-3.4,3.8-5.1,6.5-5.1,8s.3,1.3,1,1.3a4.2,4.2,0,0,0,2.2-.9l4.3-3.2v2C92.6,45,90.5,47,89,48.2S86.3,50,85.4,50,83,49,83,46.9a12.3,12.3,0,0,1,.2-1.9,7.6,7.6,0,0,1,.9-1.8c.3-.7.8-1.6,1.5-2.9s1.5-2.6,2.5-4.1a15.9,15.9,0,0,0-4.2,3.4,19.2,19.2,0,0,0-2.8,3l-2.5,3.1a16.3,16.3,0,0,1-1.9,2.4,1.7,1.7,0,0,1-1.2.6c-.6,0-1.2-.7-1.7-2a12.6,12.6,0,0,1-.8-4.6,6,6,0,0,1,.4-2.5A18,18,0,0,1,74.8,37a35.7,35.7,0,0,1,3.5-4.5A4.1,4.1,0,0,1,81.1,31a2.4,2.4,0,0,1,1.5.4,1,1,0,0,1,.6,1,2.5,2.5,0,0,1-.6,1.2l-.9,1c-3.1,3.4-4.6,5.6-4.6,6.6s.2.9.5.9.7-.4,1.4-1.1l2.6-3a45.3,45.3,0,0,1,3.8-3.8,40,40,0,0,1,4.9-3.9,5.4,5.4,0,0,1,2.6-1.1c.3,0,.6.5.9,1.3a8.5,8.5,0,0,1,.5,2.6C94.3,33.6,93.9,34.2,93,35.1Z" transform="translate(-0.7 -9.8)"/><path class="cls-1" d="M117.3,40.4v2a66,66,0,0,1-5.5,5.8c-1.5,1.3-2.7,2-3.7,2a3.9,3.9,0,0,1-2.6-.9,6.7,6.7,0,0,1-2.1-2.3,38,38,0,0,1-2.2-4.2l-2.7,3.5-1.7,2.1a1.5,1.5,0,0,1-.8.5c-.5,0-.9-.3-1.1-1a7.8,7.8,0,0,1-.4-2.9,21,21,0,0,1,.6-5.1,27.8,27.8,0,0,1,1.8-4.8c.8-1.5,1.9-3.2,3.1-5s2.6-3.6,4.2-5.6,3.9-4.9,5.5-6.6a35,35,0,0,1,4-3.9,5.6,5.6,0,0,1,2.9-1.3c.9,0,1.4.4,1.4,1.3s-1.8,3.3-5.2,7.8-8.5,10.6-15.1,18.3v2.6a127.7,127.7,0,0,1,10.7-10.6c2.7-2.3,4.8-3.5,6.3-3.5s1,.4,1.4,1.1a6.2,6.2,0,0,1,.5,2.5,7.5,7.5,0,0,1-2.5,5.3,43.9,43.9,0,0,1-7.6,5.6,8.3,8.3,0,0,0,1.6,1.9,2.4,2.4,0,0,0,1.7.6,4.1,4.1,0,0,0,2-.6,13.7,13.7,0,0,0,2.1-1.5Zm-11.6,1.5a15.8,15.8,0,0,0,2.8-2.3,20.7,20.7,0,0,0,2.8-3.2,5.1,5.1,0,0,0,1.2-2.7c0-.3-.1-.5-.4-.5s-2,.7-3.8,2.1a31,31,0,0,0-5.3,5.5A5.6,5.6,0,0,1,105.7,41.9Z" transform="translate(-0.7 -9.8)"/><path class="cls-1" d="M121.8,41.5v.7a3.8,3.8,0,0,0,.9,2.7,2.9,2.9,0,0,0,2.2,1,9.2,9.2,0,0,0,3-.7,23.8,23.8,0,0,0,3-1.8,34.9,34.9,0,0,0,3.7-3v1.8a32,32,0,0,1-6.2,6.1,9.9,9.9,0,0,1-5.9,2.1,4.7,4.7,0,0,1-4.1-2,9,9,0,0,1-1.5-5.5,11.6,11.6,0,0,1,1.4-5.6A21.8,21.8,0,0,1,123,32a20.8,20.8,0,0,1,4.4-2.9,10.8,10.8,0,0,1,4-.9,3.3,3.3,0,0,1,2.1.6,2,2,0,0,1,.8,1.9,6.4,6.4,0,0,1-1.3,3.7,19.6,19.6,0,0,1-4.2,3.6A41.4,41.4,0,0,1,121.8,41.5Zm.3-1.9a16.1,16.1,0,0,0,4.5-2.6,12.4,12.4,0,0,0,2.8-2.9,4.5,4.5,0,0,0,.9-2c0-.5-.2-.7-.6-.7a3.8,3.8,0,0,0-1.8.7,15.4,15.4,0,0,0-2.4,1.7,10.9,10.9,0,0,0-2.1,2.6A7,7,0,0,0,122.1,39.6Z" transform="translate(-0.7 -9.8)"/><path class="cls-1" d="M148.1,41.6,142.9,46c-2.5,2.1-4.1,3.2-5,3.2s-1.5-.8-2.4-2.6a11.2,11.2,0,0,1-1.2-4.6,7.8,7.8,0,0,1,.5-2.8,13,13,0,0,1,1.8-3A32.3,32.3,0,0,1,140,32a22,22,0,0,1,2.9-2.7,4.1,4.1,0,0,1,1.8-1,2,2,0,0,1,1.5.9,2.3,2.3,0,0,1,.7,1.7,3.4,3.4,0,0,1-.8,1.7,23.9,23.9,0,0,1-2.5,3.2c-1.2,1.2-2.8,2.7-4.9,4.5l-.5,1.6a1.6,1.6,0,0,0-.3.8c0,.6.3.8.8.8s1.9-.7,3.9-2.1a49.3,49.3,0,0,0,6.6-5.6l2.3-2.4,1.6-2,1.2-1.4a2,2,0,0,1,.9-.5,1.2,1.2,0,0,1,1.1.7,3.5,3.5,0,0,1,.4,2,3.7,3.7,0,0,1-.7,2,43.8,43.8,0,0,1-2.6,4.1c-1.3,1.9-2.6,3.8-3.9,5.9s-2.5,4.3-3.9,6.9l1.8-1.8,3.6-3.5,3.2-2.9a33.1,33.1,0,0,1,3.1-2.5v1.9q-4.1,4.2-7.2,8.1c-2.1,2.5-3.8,4.5-5,6.1l-2,2.6-1.4,2-1.1,1.3c-.3.4-.5.5-.7.5s-.7-.4-1.1-1.2a6,6,0,0,1-.4-2.2,4,4,0,0,1,.3-1.5A161.4,161.4,0,0,1,148.1,41.6Z" transform="translate(-0.7 -9.8)"/><path class="cls-1" d="M193.6,40.3v1.9a84.4,84.4,0,0,1-9,9,37,37,0,0,1-8,5.5,17.4,17.4,0,0,1-7.6,1.9,12,12,0,0,1-5.5-1.2,8.7,8.7,0,0,1-3.4-3.7A12.6,12.6,0,0,1,159,48a18.9,18.9,0,0,1,.8-5.6,23.8,23.8,0,0,1,2.4-5.8,62.7,62.7,0,0,1,3.9-6.2,71.7,71.7,0,0,1,5.4-6.6,74.8,74.8,0,0,1,6.3-6.3,48.9,48.9,0,0,1,5.7-4.1,25,25,0,0,1,4.8-2.2,10.8,10.8,0,0,1,3.6-.7,4.2,4.2,0,0,1,4.1,2.7,10.1,10.1,0,0,1,.5,3.1,15.5,15.5,0,0,1-2.2,7.4,40.8,40.8,0,0,1-5.7,7.8,45.6,45.6,0,0,1-6.4,6.2c-2,1.6-3.5,2.4-4.4,2.4a2.8,2.8,0,0,1-1.7-.7,2.3,2.3,0,0,1-.8-1.7,7.2,7.2,0,0,1,1.8-4,32.2,32.2,0,0,1,3.9-4.3c1.4-1.4,2.2-2,2.5-2s.2,0,.2.1a3.3,3.3,0,0,1-.3,1l-.3.7c0,.2,0,.3.1.3s1.3-.9,2.9-2.7a45.3,45.3,0,0,0,4.4-5.9,10.4,10.4,0,0,0,1.9-5.2,2.3,2.3,0,0,0-.3-1.3,1.4,1.4,0,0,0-1.1-.5c-1.4,0-3.5,1.1-6.3,3.4a66.6,66.6,0,0,0-8.5,8.4,59.1,59.1,0,0,0-7.3,10.6A20.7,20.7,0,0,0,166,46a9.6,9.6,0,0,0,.7,4,5.6,5.6,0,0,0,5.4,3.4c2.9,0,6.1-1.1,9.7-3.4A65.7,65.7,0,0,0,193.6,40.3Z" transform="translate(-0.7 -9.8)"/><path class="cls-1" d="M196.8,35.2a37.5,37.5,0,0,1,8.6-6c2.8-1.3,5-2,6.5-2a2.1,2.1,0,0,1,1.2.5,5,5,0,0,1,.8,1.2,2.6,2.6,0,0,1,.3,1,.9.9,0,0,1-.4.8l-1.4.6.5,1.2.5,1.2a2.4,2.4,0,0,1,.2.8,6.6,6.6,0,0,1-1.5,2.6l-2,2.8a5.1,5.1,0,0,0-.5,2.2c0,1.5.6,2.2,2,2.2s3.5-1.3,6.4-3.8v1.8c-5,5.4-8.5,8.2-10.6,8.2a1.7,1.7,0,0,1-1.6-.8,3.4,3.4,0,0,1-.5-2.2,21.3,21.3,0,0,1,1.6-6.7c-2.8,3.2-4.9,5.4-6.3,6.8s-2.5,2-3.4,2-1-.4-1.7-1.1a13.1,13.1,0,0,1-1.7-2.9,9.4,9.4,0,0,1-.7-3.7,14,14,0,0,1,.2-2.3,7.7,7.7,0,0,1,1.1-1.9A25.1,25.1,0,0,1,196.8,35.2Zm14-3.3c-5,2.4-8.7,4.3-10.8,6s-3.3,3.3-3.3,5a3.3,3.3,0,0,0,.4,1.5.9.9,0,0,0,.8.6,2.7,2.7,0,0,0,1.2-.4,24.6,24.6,0,0,0,5.6-4.7A89.7,89.7,0,0,0,210.8,31.9Z" transform="translate(-0.7 -9.8)"/><path class="cls-1" d="M234,40.4v2a30.9,30.9,0,0,1-2.6,2.6,22.2,22.2,0,0,1-2.5,1.6,28.1,28.1,0,0,1-.3,4.5,13,13,0,0,1-1.2,4,19.1,19.1,0,0,1-2.8,4.5,14.4,14.4,0,0,1-3.7,3.7,5.2,5.2,0,0,1-2.8,1.3q-1.2,0-2.1-1.8a9.6,9.6,0,0,1-1-4.7,19.2,19.2,0,0,1,.9-5.6c.6-2,1.6-4.5,2.8-7.7a6.3,6.3,0,0,1-1.4-3.7,3.4,3.4,0,0,1,.8-2.3,7,7,0,0,1,2.1-1.4,23.7,23.7,0,0,1,2-2.7c.6-.8,1.4-1.8,2.5-3A124,124,0,0,1,231.8,17l1.7-2.7a1.5,1.5,0,0,1,1-.7c.4,0,.7.3.9.8a3.6,3.6,0,0,1,.4,1.9,10.9,10.9,0,0,1-.3,2.6,11.7,11.7,0,0,1-.9,2.4,30.8,30.8,0,0,1-1.6,2.9c-.6,1.2-1.1,1.9-1.2,2.1l-3.3,5.8L225.6,37a25.5,25.5,0,0,0-1.6,2.7,30.4,30.4,0,0,1,2.5,2.4,10,10,0,0,1,1.6,2.4l1.8-.9,2-1.5Zm-8.7,7.9v-.7h-1.3l-1.2-.3-1-.3a2,2,0,0,0-.8-.4,24.7,24.7,0,0,0-2.2,9.1,8.5,8.5,0,0,0,.5,3c.4.8.8,1.3,1.3,1.3s1.2-.5,1.9-1.4a9.9,9.9,0,0,0,2-4A19.7,19.7,0,0,0,225.3,48.3Z" transform="translate(-0.7 -9.8)"/><path class="cls-1" d="M237.9,41.5v.7a4.3,4.3,0,0,0,.8,2.7,3.1,3.1,0,0,0,2.3,1,8.2,8.2,0,0,0,2.9-.7,19.2,19.2,0,0,0,3.1-1.8c1-.7,2.2-1.7,3.7-3v1.8a35,35,0,0,1-6.2,6.1,9.9,9.9,0,0,1-5.9,2.1,4.7,4.7,0,0,1-4.1-2,9,9,0,0,1-1.5-5.5,10.6,10.6,0,0,1,1.4-5.6,19.8,19.8,0,0,1,4.7-5.3,18.5,18.5,0,0,1,4.4-2.9,10.8,10.8,0,0,1,3.9-.9,3.6,3.6,0,0,1,2.2.6,2.3,2.3,0,0,1,.8,1.9,5.9,5.9,0,0,1-1.4,3.7,15.6,15.6,0,0,1-4.2,3.6A40.1,40.1,0,0,1,237.9,41.5Zm.3-1.9a19.6,19.6,0,0,0,4.5-2.6,14.9,14.9,0,0,0,2.8-2.9,5.3,5.3,0,0,0,.8-2c0-.5-.2-.7-.6-.7a3.9,3.9,0,0,0-1.7.7,11.8,11.8,0,0,0-2.4,1.7,14.3,14.3,0,0,0-2.2,2.6A8.2,8.2,0,0,0,238.2,39.6Z" transform="translate(-0.7 -9.8)"/></g></g></svg>