<?xml version="1.0" encoding="utf-8"?>
<!-- Generator: Adobe Illustrator 23.0.1, SVG Export Plug-In . SVG Version: 6.00 Build 0)  -->
<svg version="1.1" id="Capa_1" xmlns="http://www.w3.org/2000/svg" xmlns:xlink="http://www.w3.org/1999/xlink" x="0px" y="0px"
	 viewBox="0 0 96.4 96.4" style="enable-background:new 0 0 96.4 96.4;" xml:space="preserve">
<style type="text/css">
	.st0{fill:#F61E37;stroke:#A70014;stroke-width:1.42;stroke-miterlimit:10;}
	.st1{fill:#FCFCFC;}
	.st2{fill:#F61E37;}
</style>
<title>cafe</title>
<g>
	<g id="Capa_1-2">
		<circle class="st0" cx="48.2" cy="48.2" r="47.5"/>
		<path class="st1" d="M26.8,66.2c-3.8,0-4.8-5-2.8-5l45.6,0.5c1.9,0,0.9,5-2.9,5L26.8,66.2z M30.7,51.3l0.2-18.2
			c0-1,0.8-1.8,1.8-1.8c0,0,0.1,0,0.1,0l30.6,0.3c5.5,0.1,10,4.6,9.9,10.1s-4.6,10-10.1,9.9h-2.5c-0.1,4.1-3.5,7.4-7.6,7.4l-15-0.2
			c-4,0.1-7.3-3.2-7.4-7.2C30.7,51.5,30.7,51.4,30.7,51.3z M60.8,36.6v10h2.5c2.8,0,5-2.2,5-5s-2.2-5-5-5H60.8z"/>
	</g>
</g>
<rect x="19" y="26.7" class="st2" width="58.5" height="45.3"/>
<image style="overflow:visible;" width="1487" height="1450" id="Capa_1_xA0_Imagen" xlink:href="B0DF430C.png"  transform="matrix(3.181918e-02 0 0 3.181918e-02 27.5934 24.5579)">
</image>
</svg>
